<mxfile host="65bd71144e" modified="2021-02-19T06:48:34.705Z" agent="5.0 (Macintosh; Intel Mac OS X 11_0_0) AppleWebKit/537.36 (KHTML, like Gecko) Code/1.52.1 Chrome/83.0.4103.122 Electron/9.3.5 Safari/537.36" etag="5ieRc59Ax61byrRP9CKn" version="14.2.4" type="embed">
    <diagram id="47VzOgrFTn74ZFzw5XGd" name="ページ1">
        <mxGraphModel dx="1350" dy="807" grid="1" gridSize="10" guides="1" tooltips="1" connect="1" arrows="1" fold="1" page="1" pageScale="1" pageWidth="1600" pageHeight="1200" math="0" shadow="1">
            <root>
                <mxCell id="0"/>
                <mxCell id="1" parent="0"/>
                <mxCell id="10" value="" style="edgeStyle=orthogonalEdgeStyle;rounded=0;orthogonalLoop=1;jettySize=auto;html=1;startArrow=ERmany;startFill=0;endArrow=ERone;endFill=0;strokeWidth=4;strokeColor=none;" parent="1" edge="1">
                    <mxGeometry relative="1" as="geometry">
                        <mxPoint x="310" y="150" as="sourcePoint"/>
                        <mxPoint x="460" y="150" as="targetPoint"/>
                        <Array as="points">
                            <mxPoint x="340" y="150"/>
                            <mxPoint x="340" y="150"/>
                        </Array>
                    </mxGeometry>
                </mxCell>
                <mxCell id="73" value="" style="edgeStyle=orthogonalEdgeStyle;rounded=0;orthogonalLoop=1;jettySize=auto;html=1;strokeWidth=2;startArrow=ERone;startFill=0;endArrow=ERmany;endFill=0;jumpSize=7;sourcePerimeterSpacing=0;startSize=20;endSize=20;" parent="1" source="27" target="60" edge="1">
                    <mxGeometry relative="1" as="geometry"/>
                </mxCell>
                <mxCell id="27" value="users" style="shape=table;startSize=20;container=1;collapsible=1;childLayout=tableLayout;fixedRows=1;rowLines=0;fontStyle=1;align=center;resizeLast=1;rounded=0;sketch=0;" parent="1" vertex="1">
                    <mxGeometry x="20" y="40" width="380" height="280" as="geometry"/>
                </mxCell>
                <mxCell id="28" value="" style="shape=partialRectangle;collapsible=0;dropTarget=0;pointerEvents=0;fillColor=none;top=0;left=0;bottom=1;right=0;points=[[0,0.5],[1,0.5]];portConstraint=eastwest;" parent="27" vertex="1">
                    <mxGeometry y="20" width="380" height="20" as="geometry"/>
                </mxCell>
                <mxCell id="53" value="Colum" style="shape=partialRectangle;connectable=0;fillColor=none;top=0;left=0;bottom=0;right=0;fontStyle=1;overflow=hidden;" parent="28" vertex="1">
                    <mxGeometry width="150" height="20" as="geometry"/>
                </mxCell>
                <mxCell id="29" value="Type" style="shape=partialRectangle;connectable=0;fillColor=none;top=0;left=0;bottom=0;right=0;fontStyle=1;overflow=hidden;" parent="28" vertex="1">
                    <mxGeometry x="150" width="100" height="20" as="geometry"/>
                </mxCell>
                <mxCell id="30" value="Options" style="shape=partialRectangle;connectable=0;fillColor=none;top=0;left=0;bottom=0;right=0;align=center;spacingLeft=6;fontStyle=1;overflow=hidden;" parent="28" vertex="1">
                    <mxGeometry x="250" width="130" height="20" as="geometry"/>
                </mxCell>
                <mxCell id="56" value="" style="shape=partialRectangle;collapsible=0;dropTarget=0;pointerEvents=0;fillColor=none;top=0;left=0;bottom=1;right=0;points=[[0,0.5],[1,0.5]];portConstraint=eastwest;" parent="27" vertex="1">
                    <mxGeometry y="40" width="380" height="30" as="geometry"/>
                </mxCell>
                <mxCell id="57" value="email" style="shape=partialRectangle;connectable=0;fillColor=none;top=0;left=0;bottom=0;right=0;fontStyle=1;overflow=hidden;" parent="56" vertex="1">
                    <mxGeometry width="150" height="30" as="geometry"/>
                </mxCell>
                <mxCell id="58" value="string" style="shape=partialRectangle;connectable=0;fillColor=none;top=0;left=0;bottom=0;right=0;fontStyle=1;overflow=hidden;" parent="56" vertex="1">
                    <mxGeometry x="150" width="100" height="30" as="geometry"/>
                </mxCell>
                <mxCell id="59" value="null: false" style="shape=partialRectangle;connectable=0;fillColor=none;top=0;left=0;bottom=0;right=0;align=center;spacingLeft=6;fontStyle=1;overflow=hidden;" parent="56" vertex="1">
                    <mxGeometry x="250" width="130" height="30" as="geometry"/>
                </mxCell>
                <mxCell id="76" style="shape=partialRectangle;collapsible=0;dropTarget=0;pointerEvents=0;fillColor=none;top=0;left=0;bottom=1;right=0;points=[[0,0.5],[1,0.5]];portConstraint=eastwest;" vertex="1" parent="27">
                    <mxGeometry y="70" width="380" height="30" as="geometry"/>
                </mxCell>
                <mxCell id="77" value="nickname" style="shape=partialRectangle;connectable=0;fillColor=none;top=0;left=0;bottom=0;right=0;fontStyle=1;overflow=hidden;" vertex="1" parent="76">
                    <mxGeometry width="150" height="30" as="geometry"/>
                </mxCell>
                <mxCell id="78" value="string" style="shape=partialRectangle;connectable=0;fillColor=none;top=0;left=0;bottom=0;right=0;fontStyle=1;overflow=hidden;" vertex="1" parent="76">
                    <mxGeometry x="150" width="100" height="30" as="geometry"/>
                </mxCell>
                <mxCell id="79" value="null: false" style="shape=partialRectangle;connectable=0;fillColor=none;top=0;left=0;bottom=0;right=0;align=center;spacingLeft=6;fontStyle=1;overflow=hidden;" vertex="1" parent="76">
                    <mxGeometry x="250" width="130" height="30" as="geometry"/>
                </mxCell>
                <mxCell id="100" style="shape=partialRectangle;collapsible=0;dropTarget=0;pointerEvents=0;fillColor=none;top=0;left=0;bottom=1;right=0;points=[[0,0.5],[1,0.5]];portConstraint=eastwest;" vertex="1" parent="27">
                    <mxGeometry y="100" width="380" height="30" as="geometry"/>
                </mxCell>
                <mxCell id="101" value="password" style="shape=partialRectangle;connectable=0;fillColor=none;top=0;left=0;bottom=0;right=0;fontStyle=1;overflow=hidden;" vertex="1" parent="100">
                    <mxGeometry width="150" height="30" as="geometry"/>
                </mxCell>
                <mxCell id="102" value="string" style="shape=partialRectangle;connectable=0;fillColor=none;top=0;left=0;bottom=0;right=0;fontStyle=1;overflow=hidden;" vertex="1" parent="100">
                    <mxGeometry x="150" width="100" height="30" as="geometry"/>
                </mxCell>
                <mxCell id="103" value="null: false" style="shape=partialRectangle;connectable=0;fillColor=none;top=0;left=0;bottom=0;right=0;align=center;spacingLeft=6;fontStyle=1;overflow=hidden;" vertex="1" parent="100">
                    <mxGeometry x="250" width="130" height="30" as="geometry"/>
                </mxCell>
                <mxCell id="92" style="shape=partialRectangle;collapsible=0;dropTarget=0;pointerEvents=0;fillColor=none;top=0;left=0;bottom=1;right=0;points=[[0,0.5],[1,0.5]];portConstraint=eastwest;" vertex="1" parent="27">
                    <mxGeometry y="130" width="380" height="30" as="geometry"/>
                </mxCell>
                <mxCell id="93" value="family_name" style="shape=partialRectangle;connectable=0;fillColor=none;top=0;left=0;bottom=0;right=0;fontStyle=1;overflow=hidden;" vertex="1" parent="92">
                    <mxGeometry width="150" height="30" as="geometry"/>
                </mxCell>
                <mxCell id="94" value="string" style="shape=partialRectangle;connectable=0;fillColor=none;top=0;left=0;bottom=0;right=0;fontStyle=1;overflow=hidden;" vertex="1" parent="92">
                    <mxGeometry x="150" width="100" height="30" as="geometry"/>
                </mxCell>
                <mxCell id="95" value="null: false" style="shape=partialRectangle;connectable=0;fillColor=none;top=0;left=0;bottom=0;right=0;align=center;spacingLeft=6;fontStyle=1;overflow=hidden;" vertex="1" parent="92">
                    <mxGeometry x="250" width="130" height="30" as="geometry"/>
                </mxCell>
                <mxCell id="96" style="shape=partialRectangle;collapsible=0;dropTarget=0;pointerEvents=0;fillColor=none;top=0;left=0;bottom=1;right=0;points=[[0,0.5],[1,0.5]];portConstraint=eastwest;" vertex="1" parent="27">
                    <mxGeometry y="160" width="380" height="30" as="geometry"/>
                </mxCell>
                <mxCell id="97" value="first_name" style="shape=partialRectangle;connectable=0;fillColor=none;top=0;left=0;bottom=0;right=0;fontStyle=1;overflow=hidden;" vertex="1" parent="96">
                    <mxGeometry width="150" height="30" as="geometry"/>
                </mxCell>
                <mxCell id="98" value="string" style="shape=partialRectangle;connectable=0;fillColor=none;top=0;left=0;bottom=0;right=0;fontStyle=1;overflow=hidden;" vertex="1" parent="96">
                    <mxGeometry x="150" width="100" height="30" as="geometry"/>
                </mxCell>
                <mxCell id="99" value="null: false" style="shape=partialRectangle;connectable=0;fillColor=none;top=0;left=0;bottom=0;right=0;align=center;spacingLeft=6;fontStyle=1;overflow=hidden;" vertex="1" parent="96">
                    <mxGeometry x="250" width="130" height="30" as="geometry"/>
                </mxCell>
                <mxCell id="84" style="shape=partialRectangle;collapsible=0;dropTarget=0;pointerEvents=0;fillColor=none;top=0;left=0;bottom=1;right=0;points=[[0,0.5],[1,0.5]];portConstraint=eastwest;" vertex="1" parent="27">
                    <mxGeometry y="190" width="380" height="30" as="geometry"/>
                </mxCell>
                <mxCell id="85" value="family_name_kana" style="shape=partialRectangle;connectable=0;fillColor=none;top=0;left=0;bottom=0;right=0;fontStyle=1;overflow=hidden;" vertex="1" parent="84">
                    <mxGeometry width="150" height="30" as="geometry"/>
                </mxCell>
                <mxCell id="86" value="string" style="shape=partialRectangle;connectable=0;fillColor=none;top=0;left=0;bottom=0;right=0;fontStyle=1;overflow=hidden;" vertex="1" parent="84">
                    <mxGeometry x="150" width="100" height="30" as="geometry"/>
                </mxCell>
                <mxCell id="87" value="null: false" style="shape=partialRectangle;connectable=0;fillColor=none;top=0;left=0;bottom=0;right=0;align=center;spacingLeft=6;fontStyle=1;overflow=hidden;" vertex="1" parent="84">
                    <mxGeometry x="250" width="130" height="30" as="geometry"/>
                </mxCell>
                <mxCell id="88" style="shape=partialRectangle;collapsible=0;dropTarget=0;pointerEvents=0;fillColor=none;top=0;left=0;bottom=1;right=0;points=[[0,0.5],[1,0.5]];portConstraint=eastwest;" vertex="1" parent="27">
                    <mxGeometry y="220" width="380" height="30" as="geometry"/>
                </mxCell>
                <mxCell id="89" value="first_name_kana" style="shape=partialRectangle;connectable=0;fillColor=none;top=0;left=0;bottom=0;right=0;fontStyle=1;overflow=hidden;" vertex="1" parent="88">
                    <mxGeometry width="150" height="30" as="geometry"/>
                </mxCell>
                <mxCell id="90" value="string" style="shape=partialRectangle;connectable=0;fillColor=none;top=0;left=0;bottom=0;right=0;fontStyle=1;overflow=hidden;" vertex="1" parent="88">
                    <mxGeometry x="150" width="100" height="30" as="geometry"/>
                </mxCell>
                <mxCell id="91" value="null: false" style="shape=partialRectangle;connectable=0;fillColor=none;top=0;left=0;bottom=0;right=0;align=center;spacingLeft=6;fontStyle=1;overflow=hidden;" vertex="1" parent="88">
                    <mxGeometry x="250" width="130" height="30" as="geometry"/>
                </mxCell>
                <mxCell id="104" style="shape=partialRectangle;collapsible=0;dropTarget=0;pointerEvents=0;fillColor=none;top=0;left=0;bottom=1;right=0;points=[[0,0.5],[1,0.5]];portConstraint=eastwest;" vertex="1" parent="27">
                    <mxGeometry y="250" width="380" height="30" as="geometry"/>
                </mxCell>
                <mxCell id="105" value="birthday" style="shape=partialRectangle;connectable=0;fillColor=none;top=0;left=0;bottom=0;right=0;fontStyle=1;overflow=hidden;" vertex="1" parent="104">
                    <mxGeometry width="150" height="30" as="geometry"/>
                </mxCell>
                <mxCell id="106" value="data" style="shape=partialRectangle;connectable=0;fillColor=none;top=0;left=0;bottom=0;right=0;fontStyle=1;overflow=hidden;" vertex="1" parent="104">
                    <mxGeometry x="150" width="100" height="30" as="geometry"/>
                </mxCell>
                <mxCell id="107" value="null: false" style="shape=partialRectangle;connectable=0;fillColor=none;top=0;left=0;bottom=0;right=0;align=center;spacingLeft=6;fontStyle=1;overflow=hidden;" vertex="1" parent="104">
                    <mxGeometry x="250" width="130" height="30" as="geometry"/>
                </mxCell>
                <mxCell id="60" value="items" style="shape=table;startSize=35;container=1;collapsible=1;childLayout=tableLayout;fixedRows=1;rowLines=0;fontStyle=1;align=center;resizeLast=1;rounded=0;sketch=0;" parent="1" vertex="1">
                    <mxGeometry x="32.5" y="470" width="355" height="323" as="geometry"/>
                </mxCell>
                <mxCell id="115" value="" style="shape=partialRectangle;collapsible=0;dropTarget=0;pointerEvents=0;fillColor=none;top=0;left=0;bottom=1;right=0;points=[[0,0.5],[1,0.5]];portConstraint=eastwest;" vertex="1" parent="60">
                    <mxGeometry y="35" width="355" height="20" as="geometry"/>
                </mxCell>
                <mxCell id="116" value="Colum" style="shape=partialRectangle;connectable=0;fillColor=none;top=0;left=0;bottom=0;right=0;fontStyle=1;overflow=hidden;" vertex="1" parent="115">
                    <mxGeometry width="137.5" height="20" as="geometry"/>
                </mxCell>
                <mxCell id="117" value="Type" style="shape=partialRectangle;connectable=0;fillColor=none;top=0;left=0;bottom=0;right=0;fontStyle=1;overflow=hidden;" vertex="1" parent="115">
                    <mxGeometry x="137.5" width="77.5" height="20" as="geometry"/>
                </mxCell>
                <mxCell id="118" value="Options" style="shape=partialRectangle;connectable=0;fillColor=none;top=0;left=0;bottom=0;right=0;align=center;spacingLeft=6;fontStyle=1;overflow=hidden;" vertex="1" parent="115">
                    <mxGeometry x="215" width="140" height="20" as="geometry"/>
                </mxCell>
                <mxCell id="65" value="" style="shape=partialRectangle;collapsible=0;dropTarget=0;pointerEvents=0;fillColor=none;top=0;left=0;bottom=1;right=0;points=[[0,0.5],[1,0.5]];portConstraint=eastwest;" parent="60" vertex="1">
                    <mxGeometry y="55" width="355" height="28" as="geometry"/>
                </mxCell>
                <mxCell id="66" value="item_name" style="shape=partialRectangle;connectable=0;fillColor=none;top=0;left=0;bottom=0;right=0;fontStyle=1;overflow=hidden;" parent="65" vertex="1">
                    <mxGeometry width="137.5" height="28" as="geometry"/>
                </mxCell>
                <mxCell id="67" value="string" style="shape=partialRectangle;connectable=0;fillColor=none;top=0;left=0;bottom=0;right=0;fontStyle=1;overflow=hidden;" parent="65" vertex="1">
                    <mxGeometry x="137.5" width="77.5" height="28" as="geometry"/>
                </mxCell>
                <mxCell id="68" value="null: false" style="shape=partialRectangle;connectable=0;fillColor=none;top=0;left=0;bottom=0;right=0;align=center;spacingLeft=6;fontStyle=1;overflow=hidden;" parent="65" vertex="1">
                    <mxGeometry x="215" width="140" height="28" as="geometry"/>
                </mxCell>
                <mxCell id="131" style="shape=partialRectangle;collapsible=0;dropTarget=0;pointerEvents=0;fillColor=none;top=0;left=0;bottom=1;right=0;points=[[0,0.5],[1,0.5]];portConstraint=eastwest;" vertex="1" parent="60">
                    <mxGeometry y="83" width="355" height="30" as="geometry"/>
                </mxCell>
                <mxCell id="132" value="description" style="shape=partialRectangle;connectable=0;fillColor=none;top=0;left=0;bottom=0;right=0;fontStyle=1;overflow=hidden;" vertex="1" parent="131">
                    <mxGeometry width="137.5" height="30" as="geometry"/>
                </mxCell>
                <mxCell id="133" value="text" style="shape=partialRectangle;connectable=0;fillColor=none;top=0;left=0;bottom=0;right=0;fontStyle=1;overflow=hidden;" vertex="1" parent="131">
                    <mxGeometry x="137.5" width="77.5" height="30" as="geometry"/>
                </mxCell>
                <mxCell id="134" value="null: false" style="shape=partialRectangle;connectable=0;fillColor=none;top=0;left=0;bottom=0;right=0;align=center;spacingLeft=6;fontStyle=1;overflow=hidden;" vertex="1" parent="131">
                    <mxGeometry x="215" width="140" height="30" as="geometry"/>
                </mxCell>
                <mxCell id="135" style="shape=partialRectangle;collapsible=0;dropTarget=0;pointerEvents=0;fillColor=none;top=0;left=0;bottom=1;right=0;points=[[0,0.5],[1,0.5]];portConstraint=eastwest;" vertex="1" parent="60">
                    <mxGeometry y="113" width="355" height="30" as="geometry"/>
                </mxCell>
                <mxCell id="136" value="category_id" style="shape=partialRectangle;connectable=0;fillColor=none;top=0;left=0;bottom=0;right=0;fontStyle=1;overflow=hidden;" vertex="1" parent="135">
                    <mxGeometry width="137.5" height="30" as="geometry"/>
                </mxCell>
                <mxCell id="137" value="integer" style="shape=partialRectangle;connectable=0;fillColor=none;top=0;left=0;bottom=0;right=0;fontStyle=1;overflow=hidden;" vertex="1" parent="135">
                    <mxGeometry x="137.5" width="77.5" height="30" as="geometry"/>
                </mxCell>
                <mxCell id="138" value="null: false" style="shape=partialRectangle;connectable=0;fillColor=none;top=0;left=0;bottom=0;right=0;align=center;spacingLeft=6;fontStyle=1;overflow=hidden;" vertex="1" parent="135">
                    <mxGeometry x="215" width="140" height="30" as="geometry"/>
                </mxCell>
                <mxCell id="147" style="shape=partialRectangle;collapsible=0;dropTarget=0;pointerEvents=0;fillColor=none;top=0;left=0;bottom=1;right=0;points=[[0,0.5],[1,0.5]];portConstraint=eastwest;" vertex="1" parent="60">
                    <mxGeometry y="143" width="355" height="30" as="geometry"/>
                </mxCell>
                <mxCell id="148" value="status_id" style="shape=partialRectangle;connectable=0;fillColor=none;top=0;left=0;bottom=0;right=0;fontStyle=1;overflow=hidden;" vertex="1" parent="147">
                    <mxGeometry width="137.5" height="30" as="geometry"/>
                </mxCell>
                <mxCell id="149" value="integer" style="shape=partialRectangle;connectable=0;fillColor=none;top=0;left=0;bottom=0;right=0;fontStyle=1;overflow=hidden;" vertex="1" parent="147">
                    <mxGeometry x="137.5" width="77.5" height="30" as="geometry"/>
                </mxCell>
                <mxCell id="150" value="null: false" style="shape=partialRectangle;connectable=0;fillColor=none;top=0;left=0;bottom=0;right=0;align=center;spacingLeft=6;fontStyle=1;overflow=hidden;" vertex="1" parent="147">
                    <mxGeometry x="215" width="140" height="30" as="geometry"/>
                </mxCell>
                <mxCell id="143" style="shape=partialRectangle;collapsible=0;dropTarget=0;pointerEvents=0;fillColor=none;top=0;left=0;bottom=1;right=0;points=[[0,0.5],[1,0.5]];portConstraint=eastwest;" vertex="1" parent="60">
                    <mxGeometry y="173" width="355" height="30" as="geometry"/>
                </mxCell>
                <mxCell id="144" value="which_delivery_fee_id" style="shape=partialRectangle;connectable=0;fillColor=none;top=0;left=0;bottom=0;right=0;fontStyle=1;overflow=hidden;" vertex="1" parent="143">
                    <mxGeometry width="137.5" height="30" as="geometry"/>
                </mxCell>
                <mxCell id="145" value="integer" style="shape=partialRectangle;connectable=0;fillColor=none;top=0;left=0;bottom=0;right=0;fontStyle=1;overflow=hidden;" vertex="1" parent="143">
                    <mxGeometry x="137.5" width="77.5" height="30" as="geometry"/>
                </mxCell>
                <mxCell id="146" value="null: false" style="shape=partialRectangle;connectable=0;fillColor=none;top=0;left=0;bottom=0;right=0;align=center;spacingLeft=6;fontStyle=1;overflow=hidden;" vertex="1" parent="143">
                    <mxGeometry x="215" width="140" height="30" as="geometry"/>
                </mxCell>
                <mxCell id="191" style="shape=partialRectangle;collapsible=0;dropTarget=0;pointerEvents=0;fillColor=none;top=0;left=0;bottom=1;right=0;points=[[0,0.5],[1,0.5]];portConstraint=eastwest;" vertex="1" parent="60">
                    <mxGeometry y="203" width="355" height="30" as="geometry"/>
                </mxCell>
                <mxCell id="192" value="shipping_area_id" style="shape=partialRectangle;connectable=0;fillColor=none;top=0;left=0;bottom=0;right=0;fontStyle=1;overflow=hidden;" vertex="1" parent="191">
                    <mxGeometry width="137.5" height="30" as="geometry"/>
                </mxCell>
                <mxCell id="193" value="integer" style="shape=partialRectangle;connectable=0;fillColor=none;top=0;left=0;bottom=0;right=0;fontStyle=1;overflow=hidden;" vertex="1" parent="191">
                    <mxGeometry x="137.5" width="77.5" height="30" as="geometry"/>
                </mxCell>
                <mxCell id="194" value="null: false" style="shape=partialRectangle;connectable=0;fillColor=none;top=0;left=0;bottom=0;right=0;align=center;spacingLeft=6;fontStyle=1;overflow=hidden;" vertex="1" parent="191">
                    <mxGeometry x="215" width="140" height="30" as="geometry"/>
                </mxCell>
                <mxCell id="139" style="shape=partialRectangle;collapsible=0;dropTarget=0;pointerEvents=0;fillColor=none;top=0;left=0;bottom=1;right=0;points=[[0,0.5],[1,0.5]];portConstraint=eastwest;" vertex="1" parent="60">
                    <mxGeometry y="233" width="355" height="30" as="geometry"/>
                </mxCell>
                <mxCell id="140" value="days_to_delivery_id" style="shape=partialRectangle;connectable=0;fillColor=none;top=0;left=0;bottom=0;right=0;fontStyle=1;overflow=hidden;" vertex="1" parent="139">
                    <mxGeometry width="137.5" height="30" as="geometry"/>
                </mxCell>
                <mxCell id="141" value="integer" style="shape=partialRectangle;connectable=0;fillColor=none;top=0;left=0;bottom=0;right=0;fontStyle=1;overflow=hidden;" vertex="1" parent="139">
                    <mxGeometry x="137.5" width="77.5" height="30" as="geometry"/>
                </mxCell>
                <mxCell id="142" value="null: false" style="shape=partialRectangle;connectable=0;fillColor=none;top=0;left=0;bottom=0;right=0;align=center;spacingLeft=6;fontStyle=1;overflow=hidden;" vertex="1" parent="139">
                    <mxGeometry x="215" width="140" height="30" as="geometry"/>
                </mxCell>
                <mxCell id="151" style="shape=partialRectangle;collapsible=0;dropTarget=0;pointerEvents=0;fillColor=none;top=0;left=0;bottom=1;right=0;points=[[0,0.5],[1,0.5]];portConstraint=eastwest;" vertex="1" parent="60">
                    <mxGeometry y="263" width="355" height="30" as="geometry"/>
                </mxCell>
                <mxCell id="152" value="price" style="shape=partialRectangle;connectable=0;fillColor=none;top=0;left=0;bottom=0;right=0;fontStyle=1;overflow=hidden;" vertex="1" parent="151">
                    <mxGeometry width="137.5" height="30" as="geometry"/>
                </mxCell>
                <mxCell id="153" value="string" style="shape=partialRectangle;connectable=0;fillColor=none;top=0;left=0;bottom=0;right=0;fontStyle=1;overflow=hidden;" vertex="1" parent="151">
                    <mxGeometry x="137.5" width="77.5" height="30" as="geometry"/>
                </mxCell>
                <mxCell id="154" value="null: false" style="shape=partialRectangle;connectable=0;fillColor=none;top=0;left=0;bottom=0;right=0;align=center;spacingLeft=6;fontStyle=1;overflow=hidden;" vertex="1" parent="151">
                    <mxGeometry x="215" width="140" height="30" as="geometry"/>
                </mxCell>
                <mxCell id="271" style="shape=partialRectangle;collapsible=0;dropTarget=0;pointerEvents=0;fillColor=none;top=0;left=0;bottom=1;right=0;points=[[0,0.5],[1,0.5]];portConstraint=eastwest;" vertex="1" parent="60">
                    <mxGeometry y="293" width="355" height="30" as="geometry"/>
                </mxCell>
                <mxCell id="272" value="user_id" style="shape=partialRectangle;connectable=0;fillColor=none;top=0;left=0;bottom=0;right=0;fontStyle=1;overflow=hidden;" vertex="1" parent="271">
                    <mxGeometry width="137.5" height="30" as="geometry"/>
                </mxCell>
                <mxCell id="273" value="references" style="shape=partialRectangle;connectable=0;fillColor=none;top=0;left=0;bottom=0;right=0;fontStyle=1;overflow=hidden;" vertex="1" parent="271">
                    <mxGeometry x="137.5" width="77.5" height="30" as="geometry"/>
                </mxCell>
                <mxCell id="274" value="null: false" style="shape=partialRectangle;connectable=0;fillColor=none;top=0;left=0;bottom=0;right=0;align=center;spacingLeft=6;fontStyle=1;overflow=hidden;" vertex="1" parent="271">
                    <mxGeometry x="215" width="140" height="30" as="geometry"/>
                </mxCell>
                <mxCell id="231" value="buyers" style="shape=table;startSize=35;container=1;collapsible=1;childLayout=tableLayout;fixedRows=1;rowLines=0;fontStyle=1;align=center;resizeLast=1;rounded=0;sketch=0;" vertex="1" parent="1">
                    <mxGeometry x="570" y="493" width="370" height="300" as="geometry"/>
                </mxCell>
                <mxCell id="232" value="" style="shape=partialRectangle;collapsible=0;dropTarget=0;pointerEvents=0;fillColor=none;top=0;left=0;bottom=1;right=0;points=[[0,0.5],[1,0.5]];portConstraint=eastwest;" vertex="1" parent="231">
                    <mxGeometry y="35" width="370" height="20" as="geometry"/>
                </mxCell>
                <mxCell id="233" value="Colum" style="shape=partialRectangle;connectable=0;fillColor=none;top=0;left=0;bottom=0;right=0;fontStyle=1;overflow=hidden;" vertex="1" parent="232">
                    <mxGeometry width="140" height="20" as="geometry"/>
                </mxCell>
                <mxCell id="234" value="Type" style="shape=partialRectangle;connectable=0;fillColor=none;top=0;left=0;bottom=0;right=0;fontStyle=1;overflow=hidden;" vertex="1" parent="232">
                    <mxGeometry x="140" width="90" height="20" as="geometry"/>
                </mxCell>
                <mxCell id="235" value="Options" style="shape=partialRectangle;connectable=0;fillColor=none;top=0;left=0;bottom=0;right=0;align=center;spacingLeft=6;fontStyle=1;overflow=hidden;" vertex="1" parent="232">
                    <mxGeometry x="230" width="140" height="20" as="geometry"/>
                </mxCell>
                <mxCell id="236" value="" style="shape=partialRectangle;collapsible=0;dropTarget=0;pointerEvents=0;fillColor=none;top=0;left=0;bottom=1;right=0;points=[[0,0.5],[1,0.5]];portConstraint=eastwest;" vertex="1" parent="231">
                    <mxGeometry y="55" width="370" height="35" as="geometry"/>
                </mxCell>
                <mxCell id="237" value="postal_code" style="shape=partialRectangle;connectable=0;fillColor=none;top=0;left=0;bottom=0;right=0;fontStyle=1;overflow=hidden;" vertex="1" parent="236">
                    <mxGeometry width="140" height="35" as="geometry"/>
                </mxCell>
                <mxCell id="238" value="string" style="shape=partialRectangle;connectable=0;fillColor=none;top=0;left=0;bottom=0;right=0;fontStyle=1;overflow=hidden;" vertex="1" parent="236">
                    <mxGeometry x="140" width="90" height="35" as="geometry"/>
                </mxCell>
                <mxCell id="239" value="null: false" style="shape=partialRectangle;connectable=0;fillColor=none;top=0;left=0;bottom=0;right=0;align=center;spacingLeft=6;fontStyle=1;overflow=hidden;" vertex="1" parent="236">
                    <mxGeometry x="230" width="140" height="35" as="geometry"/>
                </mxCell>
                <mxCell id="240" style="shape=partialRectangle;collapsible=0;dropTarget=0;pointerEvents=0;fillColor=none;top=0;left=0;bottom=1;right=0;points=[[0,0.5],[1,0.5]];portConstraint=eastwest;" vertex="1" parent="231">
                    <mxGeometry y="90" width="370" height="30" as="geometry"/>
                </mxCell>
                <mxCell id="241" value="prefecture" style="shape=partialRectangle;connectable=0;fillColor=none;top=0;left=0;bottom=0;right=0;fontStyle=1;overflow=hidden;" vertex="1" parent="240">
                    <mxGeometry width="140" height="30" as="geometry"/>
                </mxCell>
                <mxCell id="242" value="data" style="shape=partialRectangle;connectable=0;fillColor=none;top=0;left=0;bottom=0;right=0;fontStyle=1;overflow=hidden;" vertex="1" parent="240">
                    <mxGeometry x="140" width="90" height="30" as="geometry"/>
                </mxCell>
                <mxCell id="243" value="null: false" style="shape=partialRectangle;connectable=0;fillColor=none;top=0;left=0;bottom=0;right=0;align=center;spacingLeft=6;fontStyle=1;overflow=hidden;" vertex="1" parent="240">
                    <mxGeometry x="230" width="140" height="30" as="geometry"/>
                </mxCell>
                <mxCell id="244" style="shape=partialRectangle;collapsible=0;dropTarget=0;pointerEvents=0;fillColor=none;top=0;left=0;bottom=1;right=0;points=[[0,0.5],[1,0.5]];portConstraint=eastwest;" vertex="1" parent="231">
                    <mxGeometry y="120" width="370" height="30" as="geometry"/>
                </mxCell>
                <mxCell id="245" value="municipalities" style="shape=partialRectangle;connectable=0;fillColor=none;top=0;left=0;bottom=0;right=0;fontStyle=1;overflow=hidden;" vertex="1" parent="244">
                    <mxGeometry width="140" height="30" as="geometry"/>
                </mxCell>
                <mxCell id="246" value="string" style="shape=partialRectangle;connectable=0;fillColor=none;top=0;left=0;bottom=0;right=0;fontStyle=1;overflow=hidden;" vertex="1" parent="244">
                    <mxGeometry x="140" width="90" height="30" as="geometry"/>
                </mxCell>
                <mxCell id="247" value="null: false" style="shape=partialRectangle;connectable=0;fillColor=none;top=0;left=0;bottom=0;right=0;align=center;spacingLeft=6;fontStyle=1;overflow=hidden;" vertex="1" parent="244">
                    <mxGeometry x="230" width="140" height="30" as="geometry"/>
                </mxCell>
                <mxCell id="248" style="shape=partialRectangle;collapsible=0;dropTarget=0;pointerEvents=0;fillColor=none;top=0;left=0;bottom=1;right=0;points=[[0,0.5],[1,0.5]];portConstraint=eastwest;" vertex="1" parent="231">
                    <mxGeometry y="150" width="370" height="30" as="geometry"/>
                </mxCell>
                <mxCell id="249" value="address" style="shape=partialRectangle;connectable=0;fillColor=none;top=0;left=0;bottom=0;right=0;fontStyle=1;overflow=hidden;" vertex="1" parent="248">
                    <mxGeometry width="140" height="30" as="geometry"/>
                </mxCell>
                <mxCell id="250" value="string" style="shape=partialRectangle;connectable=0;fillColor=none;top=0;left=0;bottom=0;right=0;fontStyle=1;overflow=hidden;" vertex="1" parent="248">
                    <mxGeometry x="140" width="90" height="30" as="geometry"/>
                </mxCell>
                <mxCell id="251" value="null: false" style="shape=partialRectangle;connectable=0;fillColor=none;top=0;left=0;bottom=0;right=0;align=center;spacingLeft=6;fontStyle=1;overflow=hidden;" vertex="1" parent="248">
                    <mxGeometry x="230" width="140" height="30" as="geometry"/>
                </mxCell>
                <mxCell id="252" style="shape=partialRectangle;collapsible=0;dropTarget=0;pointerEvents=0;fillColor=none;top=0;left=0;bottom=1;right=0;points=[[0,0.5],[1,0.5]];portConstraint=eastwest;" vertex="1" parent="231">
                    <mxGeometry y="180" width="370" height="30" as="geometry"/>
                </mxCell>
                <mxCell id="253" value="building" style="shape=partialRectangle;connectable=0;fillColor=none;top=0;left=0;bottom=0;right=0;fontStyle=1;overflow=hidden;" vertex="1" parent="252">
                    <mxGeometry width="140" height="30" as="geometry"/>
                </mxCell>
                <mxCell id="254" value="string" style="shape=partialRectangle;connectable=0;fillColor=none;top=0;left=0;bottom=0;right=0;fontStyle=1;overflow=hidden;" vertex="1" parent="252">
                    <mxGeometry x="140" width="90" height="30" as="geometry"/>
                </mxCell>
                <mxCell id="255" value="" style="shape=partialRectangle;connectable=0;fillColor=none;top=0;left=0;bottom=0;right=0;align=center;spacingLeft=6;fontStyle=1;overflow=hidden;" vertex="1" parent="252">
                    <mxGeometry x="230" width="140" height="30" as="geometry"/>
                </mxCell>
                <mxCell id="256" style="shape=partialRectangle;collapsible=0;dropTarget=0;pointerEvents=0;fillColor=none;top=0;left=0;bottom=1;right=0;points=[[0,0.5],[1,0.5]];portConstraint=eastwest;" vertex="1" parent="231">
                    <mxGeometry y="210" width="370" height="30" as="geometry"/>
                </mxCell>
                <mxCell id="257" value="tel" style="shape=partialRectangle;connectable=0;fillColor=none;top=0;left=0;bottom=0;right=0;fontStyle=1;overflow=hidden;" vertex="1" parent="256">
                    <mxGeometry width="140" height="30" as="geometry"/>
                </mxCell>
                <mxCell id="258" value="string" style="shape=partialRectangle;connectable=0;fillColor=none;top=0;left=0;bottom=0;right=0;fontStyle=1;overflow=hidden;" vertex="1" parent="256">
                    <mxGeometry x="140" width="90" height="30" as="geometry"/>
                </mxCell>
                <mxCell id="259" value="null: false" style="shape=partialRectangle;connectable=0;fillColor=none;top=0;left=0;bottom=0;right=0;align=center;spacingLeft=6;fontStyle=1;overflow=hidden;" vertex="1" parent="256">
                    <mxGeometry x="230" width="140" height="30" as="geometry"/>
                </mxCell>
                <mxCell id="282" style="shape=partialRectangle;collapsible=0;dropTarget=0;pointerEvents=0;fillColor=none;top=0;left=0;bottom=1;right=0;points=[[0,0.5],[1,0.5]];portConstraint=eastwest;" vertex="1" parent="231">
                    <mxGeometry y="240" width="370" height="30" as="geometry"/>
                </mxCell>
                <mxCell id="283" value="user_id" style="shape=partialRectangle;connectable=0;fillColor=none;top=0;left=0;bottom=0;right=0;fontStyle=1;overflow=hidden;" vertex="1" parent="282">
                    <mxGeometry width="140" height="30" as="geometry"/>
                </mxCell>
                <mxCell id="284" value="references" style="shape=partialRectangle;connectable=0;fillColor=none;top=0;left=0;bottom=0;right=0;fontStyle=1;overflow=hidden;" vertex="1" parent="282">
                    <mxGeometry x="140" width="90" height="30" as="geometry"/>
                </mxCell>
                <mxCell id="285" value="null: false" style="shape=partialRectangle;connectable=0;fillColor=none;top=0;left=0;bottom=0;right=0;align=center;spacingLeft=6;fontStyle=1;overflow=hidden;" vertex="1" parent="282">
                    <mxGeometry x="230" width="140" height="30" as="geometry"/>
                </mxCell>
                <mxCell id="275" style="shape=partialRectangle;collapsible=0;dropTarget=0;pointerEvents=0;fillColor=none;top=0;left=0;bottom=1;right=0;points=[[0,0.5],[1,0.5]];portConstraint=eastwest;" vertex="1" parent="231">
                    <mxGeometry y="270" width="370" height="30" as="geometry"/>
                </mxCell>
                <mxCell id="276" value="item_id" style="shape=partialRectangle;connectable=0;fillColor=none;top=0;left=0;bottom=0;right=0;fontStyle=1;overflow=hidden;" vertex="1" parent="275">
                    <mxGeometry width="140" height="30" as="geometry"/>
                </mxCell>
                <mxCell id="277" value="references" style="shape=partialRectangle;connectable=0;fillColor=none;top=0;left=0;bottom=0;right=0;fontStyle=1;overflow=hidden;" vertex="1" parent="275">
                    <mxGeometry x="140" width="90" height="30" as="geometry"/>
                </mxCell>
                <mxCell id="278" value="null: false" style="shape=partialRectangle;connectable=0;fillColor=none;top=0;left=0;bottom=0;right=0;align=center;spacingLeft=6;fontStyle=1;overflow=hidden;" vertex="1" parent="275">
                    <mxGeometry x="230" width="140" height="30" as="geometry"/>
                </mxCell>
                <mxCell id="270" style="edgeStyle=orthogonalEdgeStyle;rounded=0;jumpSize=7;orthogonalLoop=1;jettySize=auto;html=1;exitX=0;exitY=0.5;exitDx=0;exitDy=0;startArrow=ERone;startFill=0;startSize=20;sourcePerimeterSpacing=0;endArrow=ERone;endFill=0;endSize=20;strokeWidth=2;targetPerimeterSpacing=9;entryX=1;entryY=0.5;entryDx=0;entryDy=0;" edge="1" parent="1" source="244" target="147">
                    <mxGeometry relative="1" as="geometry">
                        <mxPoint x="410" y="635" as="targetPoint"/>
                    </mxGeometry>
                </mxCell>
                <mxCell id="281" style="edgeStyle=orthogonalEdgeStyle;rounded=0;jumpSize=7;orthogonalLoop=1;jettySize=auto;html=1;exitX=1;exitY=0.5;exitDx=0;exitDy=0;startArrow=ERone;startFill=0;startSize=20;sourcePerimeterSpacing=0;endArrow=ERmany;endFill=0;endSize=20;targetPerimeterSpacing=9;strokeWidth=2;" edge="1" parent="1" source="92">
                    <mxGeometry relative="1" as="geometry">
                        <mxPoint x="760" y="490" as="targetPoint"/>
                    </mxGeometry>
                </mxCell>
            </root>
        </mxGraphModel>
    </diagram>
</mxfile>